<svg version="1.2" xmlns="http://www.w3.org/2000/svg" viewBox="0 0 89 370"><defs><linearGradient id="P" gradientUnits="userSpaceOnUse"/><linearGradient id="g1" x2="1" href="#P" gradientTransform="matrix(64.4,0,0,198.95,12.8,283.5)"><stop stop-color="#555"/><stop offset=".24" stop-color="#555"/><stop offset="1" stop-color="#ddd"/></linearGradient><linearGradient id="g2" x2="1" href="#P" gradientTransform="matrix(64.4,0,0,19.55,12.8,361.5)"><stop stop-color="#9c9c9c"/><stop offset=".24" stop-color="#9c9c9c"/><stop offset="1" stop-color="#e4e4e4"/></linearGradient><linearGradient id="g3" x2="1" href="#P" gradientTransform="matrix(12.65,0,0,31.05,37.175,84.5)"><stop stop-color="#4985cc"/><stop offset=".24" stop-color="#4985cc"/><stop offset="1" stop-color="#8bbefa"/></linearGradient><radialGradient id="g4" cx="0" cy="0" r="1" href="#P" gradientTransform="matrix(46.28,0,0,46.28,44.5,28.5)"><stop stop-color="#9c9c9c"/><stop offset=".68" stop-color="#9c9c9c"/><stop offset="1" stop-color="#fff"/></radialGradient></defs><style>.a{fill:url(#g1)}.b{fill:url(#g2)}.c{fill:#1c1c1c}.d{fill:url(#g3)}.e{fill:url(#g4)}</style><path class="a" d="m73 197v157c0 8.8-7.2 16-16 16h-24c-8.8 0-16-7.2-16-16v-157z"/><path class="b" d="m73 353v1c0 8.8-7.2 16-16 16h-24c-8.8 0-16-7.2-16-16v-1z"/><path class="c" d="m78 166v30c0 1.7-1.3 3-3 3h-60c-1.7 0-3-1.3-3-3v-30z"/><path class="c" d="m15 143c0 0 0-74.1 0-80 0.1-6.4-2.1-14.1-5-17 3.4 0 18.2 0 29 0 0 0 5.2 0 12 0 10.8 0 25.6 0 29 0-2.9 2.9-5.1 10.6-5 17 0 5.9 0 80 0 80z"/><path fill-rule="evenodd" d="m16 70.1h7c0 0 8-1.5 8 8 0 9.4 0 10.9 0 17 0 11 14 10.8 14 10.8v34.2h-29zm58 70h-29v-34.2c0 0 14 0.2 14-10.8 0-6.1 0-7.6 0-17 0-9.4 8-8 8-8h7z"/><path class="c" d="m19 135h52c3.3 0 6 2.7 6 6v24c0 3.3-2.7 6-6 6h-52c-3.3 0-6-2.7-6-6v-24c0-3.3 2.7-6 6-6z"/><path class="d" d="m43.5 71c3 0 5.5 2.5 5.5 5.5v16c0 3-2.5 5.5-5.5 5.5-3 0-5.5-2.5-5.5-5.5v-16c0-3 2.5-5.5 5.5-5.5z"/><path class="e" d="m44.5 57c-24.6 0-44.5-12.7-44.5-28.5 0-15.8 19.9-28.5 44.5-28.5 24.6 0 44.5 12.7 44.5 28.5 0 15.8-19.9 28.5-44.5 28.5z"/><path  d="m45 49c-21.6 0-39-10.5-39-23.5 0-13 17.4-23.5 39-23.5 21.6 0 39 10.5 39 23.5 0 13-17.4 23.5-39 23.5z"/></svg>